<svg width="1440" height="320" viewBox="0 0 1440 320" fill="none" xmlns="http://www.w3.org/2000/svg">
<g clip-path="url(#clip0_125_2)">
<path d="M0.00013566 111C7.20014 153.3 29 203 44 234.7C58.2 267 64.5 282.4 78.5 234.7C93.3 186.4 116 247.2 131 241.5C145.5 236.2 160 204.2 175 241.5C189.1 279.2 204 213 218 234.7C232.7 256 247 288 262 277.3C276.4 267 291 258.3 305 248C320 237.3 327.5 272 341.5 277.3C356.1 283 378 266.4 393 266.7C407.3 266.4 422 245.7 436 256C450.9 266.7 455 240 470 218.7C484.5 197 509 288.5 524 261.5C538.2 234.5 553 107 567 117.3C581.8 128 596 160 611 165.3C625.5 171 640 213 655 197.3C669.1 181 684 171 698 154.7C712.7 139 727 133 742 117.3C756.4 101 771 91.0001 785 106.7C800 123 815 85.0001 829 101.3C843.6 117 858 107 873 101.3C887.3 96.0001 902 96.0001 916 106.7C930.9 117 945 139 960 170.7C974.5 203 989 245 1004 218.7C1018.2 192 1023.46 197.4 1037.46 154.7C1052.26 112.4 1066.46 122.4 1081.46 154.7C1095.96 186.4 1120 139 1135 165.3C1149.1 192 1164 192 1178 213.3C1192.7 235 1207 277 1222 282.7C1236.4 288 1251 256 1265 245.3C1280 235 1295 245 1309 234.7C1323.6 224 1338 192 1353 181.3C1367.3 171 1382 181 1396 208C1410.9 235 1425 277 1433 298.7L1440 320H1432.7C1425.5 320 1411 320 1396 320C1381.8 320 1367 320 1353 320C1338.2 320 1324 320 1309 320C1294.5 320 1280 320 1265 320C1250.9 320 1236 320 1222 320C1207.3 320 1193 320 1178 320C1163.6 320 1149 320 1135 320C1120 320 1105 320 1091 320C1076.4 320 1062 320 1047 320C1032.7 320 1018 320 1004 320C989.1 320 975 320 960 320C945.5 320 931 320 916 320C901.8 320 887 320 873 320C858.2 320 844 320 829 320C814.5 320 800 320 785 320C770.9 320 756 320 742 320C727.3 320 713 320 698 320C683.6 320 669 320 655 320C640 320 625 320 611 320C596.4 320 582 320 567 320C552.7 320 538 320 524 320C509.1 320 495 320 480 320C465.5 320 451 320 436 320C421.8 320 407 320 393 320C378.2 320 364 320 349 320C334.5 320 320 320 305 320C290.9 320 276 320 262 320C247.3 320 233 320 218 320C203.6 320 189 320 175 320C160 320 145 320 131 320C116.4 320 102 320 87 320C72.7 320 58 320 44 320C29.1 320 15 320 7 320H0L0.00013566 111Z" fill="white"/>
</g>
<defs>
<clipPath id="clip0_125_2">
<rect width="1440" height="320" fill="white"/>
</clipPath>
</defs>
</svg>
